<?xml version="1.0"?>
<svg xmlns="http://www.w3.org/2000/svg" fill="#000000" viewBox="0 0 128 128" width="64px" height="64px">    <path d="M 64 9.4003906 C 39.2 9.4003906 19 29.600391 19 54.400391 C 19 78.200391 37.6 97.800781 61 99.300781 L 61 115.59961 C 61 117.29961 62.3 118.59961 64 118.59961 C 65.7 118.59961 67 117.29961 67 115.59961 L 67 99.300781 C 90.4 97.700781 109 78.200391 109 54.400391 C 109 29.600391 88.8 9.4003906 64 9.4003906 z M 64 15.400391 C 85.5 15.400391 103 32.900391 103 54.400391 C 103 75.900391 85.5 93.400391 64 93.400391 C 42.5 93.400391 25 75.900391 25 54.400391 C 25 32.900391 42.5 15.400391 64 15.400391 z M 47.300781 49.400391 C 44.500781 49.400391 42.300781 51.600391 42.300781 54.400391 C 42.300781 57.200391 44.500781 59.400391 47.300781 59.400391 L 80.699219 59.400391 C 83.499219 59.400391 85.699219 57.200391 85.699219 54.400391 C 85.699219 51.600391 83.499219 49.400391 80.699219 49.400391 L 47.300781 49.400391 z"/></svg>
